<?xml version="1.0" encoding="UTF-8"?>
<svg id="Layer_2" data-name="Layer 2" xmlns="http://www.w3.org/2000/svg" viewBox="0 0 717.35 445.51">
  <defs>
    <style>
      .cls-1 {
        fill: #fff;
      }
    </style>
  </defs>
  <g id="Layer_1-2" data-name="Layer 1">
    <g>
      <path class="cls-1" d="M56.76,80.69l10.94-10.94V10.6L56.76,0H0L2.74,8.38V121.72L0,129.93H26.84l-2.74-8.21v-38.47l2.56-2.56h7.01l1.71,2.05,9.23,39.15-1.88,8.04h26.84l-3.42-8.72-9.4-40.52Zm-10.77-23.93l-2.56,2.39H26.67l-2.56-2.39V24.28l2.56-2.39h16.75l2.56,2.39V56.76Z"/>
      <path class="cls-1" d="M102.4,124.8l4.79-19.83,2.56-2.56h21.37l2.56,2.56,4.79,19.83-1.88,5.13h27.18l-4.27-8.72L132.84,7.52l2.39-7.52h-29.58l2.39,7.52-26.67,113.69-4.27,8.72h27.18l-1.88-5.13Zm18.12-87.7l8.38,41.54-2.05,1.88h-12.65l-2.05-1.88,8.38-41.54Z"/>
      <polygon class="cls-1" points="171.81 129.93 198.65 129.93 195.92 121.72 195.92 50.95 227.38 129.93 251.82 129.93 249.09 121.72 249.09 8.38 251.82 0 224.64 0 227.38 8.38 227.38 79.15 195.92 0 171.81 0 174.55 8.38 174.55 121.72 171.81 129.93"/>
      <polygon class="cls-1" points="320.72 129.93 331.49 119.16 331.49 97.1 334.23 88.9 307.04 88.9 309.95 97.1 309.95 105.48 307.56 108.05 290.63 108.05 288.07 105.48 288.07 23.93 290.63 21.37 307.56 21.37 309.95 23.93 309.95 32.48 307.04 40.69 334.23 40.69 331.49 32.48 331.49 10.6 320.72 0 277.47 0 266.53 10.6 266.53 119.16 277.47 129.93 320.72 129.93"/>
      <polygon class="cls-1" points="346.88 129.93 373.72 129.93 370.98 121.72 370.98 77.79 373.55 75.22 390.13 75.22 392.69 77.79 392.69 121.72 390.13 129.93 417.31 129.93 414.58 121.72 414.58 8.38 417.31 0 390.13 0 392.69 8.38 392.69 50.95 390.13 53.51 373.55 53.51 370.98 50.95 370.98 8.38 373.72 0 346.88 0 349.61 8.38 349.61 121.72 346.88 129.93"/>
      <path class="cls-1" d="M486.21,129.93l10.77-10.77V10.6l-10.77-10.6h-43.25l-10.94,10.6V119.16l10.94,10.77h43.25Zm-32.65-105.65l2.56-2.39h16.41l2.56,2.39V105.82l-2.56,2.39h-16.41l-2.56-2.39V24.28Z"/>
      <path class="cls-1" d="M0,315.58l2.74,8.21v113.35L0,445.51H56.76l10.94-10.77v-44.45l-11.11-10.94,11.11-10.77v-42.4l-10.94-10.6H0Zm45.99,105.48l-2.56,2.56H26.84l-2.56-2.56v-28.21l2.56-2.56h16.58l2.56,2.56v28.21Zm0-54.88l-2.56,2.39H26.84l-2.56-2.39v-26.67l2.56-2.56h16.58l2.56,2.56v26.67Z"/>
      <polygon class="cls-1" points="109.24 423.8 106.68 421.41 106.68 323.96 109.24 315.58 82.4 315.58 85.14 323.96 85.14 437.31 82.4 445.51 147.37 445.51 151.3 421.41 142.41 423.8 109.24 423.8"/>
      <path class="cls-1" d="M210.79,323.11l2.39-7.52h-29.58l2.39,7.52-26.67,113.69-4.27,8.72h27.18l-1.88-5.13,4.79-19.83,2.56-2.56h21.37l2.56,2.56,4.79,19.83-1.88,5.13h27.18l-4.27-8.72-26.67-113.69Zm-5.98,73h-12.65l-2.05-1.88,8.38-41.54,8.38,41.54-2.05,1.88Z"/>
      <polygon class="cls-1" points="329.78 315.58 302.6 315.58 305.33 323.96 305.33 394.74 273.88 315.58 249.77 315.58 252.51 323.96 252.51 437.31 249.77 445.51 276.61 445.51 273.88 437.31 273.88 366.53 305.33 445.51 329.78 445.51 327.05 437.31 327.05 323.96 329.78 315.58"/>
      <polygon class="cls-1" points="385 356.27 412.18 356.27 409.45 348.07 409.45 326.18 398.68 315.58 355.42 315.58 344.48 326.18 344.48 434.74 355.42 445.51 398.68 445.51 409.45 434.74 409.45 412.69 412.18 404.48 385 404.48 387.91 412.69 387.91 421.07 385.51 423.63 368.59 423.63 366.02 421.07 366.02 339.52 368.59 336.95 385.51 336.95 387.91 339.52 387.91 348.07 385 356.27"/>
      <path class="cls-1" d="M471.34,323.11l2.39-7.52h-29.58l2.39,7.52-26.67,113.69-4.27,8.72h27.18l-1.88-5.13,4.79-19.83,2.56-2.56h21.37l2.56,2.56,4.79,19.83-1.88,5.13h27.18l-4.27-8.72-26.67-113.69Zm-5.98,73h-12.65l-2.05-1.88,8.38-41.54,8.38,41.54-2.05,1.88Z"/>
      <path class="cls-1" d="M0,155.84l2.39,8.21v113.35l-2.39,8.38H56.76l10.94-10.77v-108.56l-10.94-10.6H0Zm45.82,105.48l-2.56,2.56H26.67l-2.56-2.56v-81.55l2.56-2.56h16.58l2.56,2.56v81.55Z"/>
      <polygon class="cls-1" points="109.07 177.21 142.41 177.21 151.3 179.78 147.37 155.84 82.4 155.84 85.14 164.05 85.14 277.4 82.4 285.77 147.37 285.77 151.3 261.33 142.41 263.89 109.07 263.89 106.51 261.33 106.51 233.29 109.07 230.9 120.01 230.9 128.39 233.63 128.39 206.45 120.01 209.18 109.07 209.18 106.51 206.62 106.51 179.78 109.07 177.21"/>
      <path class="cls-1" d="M204.12,164.22v113.35l-2.74,8.21h26.84l-2.74-8.21v-38.29l2.56-2.56h30.09l10.94-10.94v-59.32l-10.94-10.6h-56.76l2.74,8.38Zm21.37,15.9l2.56-2.39h16.58l2.56,2.39v32.48l-2.56,2.39h-16.58l-2.56-2.39v-32.48Z"/>
      <path class="cls-1" d="M355.77,285.77l-4.27-8.72-26.67-113.69,2.39-7.52h-29.58l2.39,7.52-26.67,113.69-4.27,8.72h27.18l-1.88-5.13,4.79-19.83,2.56-2.56h21.37l2.56,2.56,4.79,19.83-1.88,5.13h27.18Zm-36.93-49.41h-12.65l-2.05-1.88,8.38-41.54,8.38,41.54-2.05,1.88Z"/>
      <polygon class="cls-1" points="388.08 261.67 388.08 164.22 390.64 155.84 363.8 155.84 366.54 164.22 366.54 277.57 363.8 285.77 428.77 285.77 432.7 261.67 423.81 264.06 390.64 264.06 388.08 261.67"/>
      <path class="cls-1" d="M454.07,155.84l-10.94,10.6v108.56l10.94,10.77h43.25l10.77-10.77v-108.56l-10.77-10.6h-43.25Zm32.14,105.82l-2.56,2.39h-16.41l-2.56-2.39v-81.55l2.56-2.39h16.41l2.56,2.39v81.55Z"/>
      <polygon class="cls-1" points="622.64 155.84 598.53 155.84 572.72 214.65 546.9 155.84 522.8 155.84 525.53 164.22 525.53 277.57 522.8 285.77 549.64 285.77 546.9 277.57 546.9 202.86 565.88 248.5 579.55 248.5 598.53 202.86 598.53 277.57 595.79 285.77 622.64 285.77 619.9 277.57 619.9 164.22 622.64 155.84"/>
      <path class="cls-1" d="M717.35,285.77l-4.27-8.72-26.67-113.69,2.39-7.52h-29.58l2.39,7.52-26.67,113.69-4.27,8.72h27.18l-1.88-5.13,4.79-19.83,2.56-2.56h21.37l2.56,2.56,4.79,19.83-1.88,5.13h27.18Zm-36.93-49.41h-12.65l-2.05-1.88,8.38-41.54,8.38,41.54-2.05,1.88Z"/>
    </g>
  </g>
</svg>