<?xml version="1.0" encoding="UTF-8"?>
<svg id="Layer_2" data-name="Layer 2" xmlns="http://www.w3.org/2000/svg" xmlns:xlink="http://www.w3.org/1999/xlink" viewBox="0 0 717.35 445.51">
  <defs>
    <style>
      .cls-1 {
        clip-path: url(#clippath);
      }

      .cls-2 {
        fill: none;
      }
    </style>
    <clipPath id="clippath">
      <path class="cls-2" d="M56.76,80.69l10.94-10.94V10.6L56.76,0H0L2.74,8.38V121.72L0,129.93H26.84l-2.74-8.21v-38.47l2.56-2.56h7.01l1.71,2.05,9.23,39.15-1.88,8.04h26.84l-3.42-8.72-9.4-40.52Zm-10.77-23.93l-2.56,2.39H26.67l-2.56-2.39V24.28l2.56-2.39h16.75l2.56,2.39V56.76Zm56.42,68.04l4.79-19.83,2.56-2.56h21.37l2.56,2.56,4.79,19.83-1.88,5.13h27.18l-4.27-8.72L132.84,7.52l2.39-7.52h-29.58l2.39,7.52-26.67,113.69-4.27,8.72h27.18l-1.88-5.13Zm18.12-87.7l8.38,41.54-2.05,1.88h-12.65l-2.05-1.88,8.38-41.54Zm54.02,84.62V8.38l-2.74-8.38h24.1l31.46,79.15V8.38l-2.74-8.38h27.18l-2.74,8.38V121.72l2.74,8.21h-24.45l-31.46-78.98V121.72l2.74,8.21h-26.84l2.74-8.21Zm102.92,8.21l-10.94-10.77V10.6l10.94-10.6h43.25l10.77,10.6v21.88l2.74,8.21h-27.18l2.91-8.21v-8.55l-2.39-2.56h-16.93l-2.56,2.56V105.48l2.56,2.56h16.93l2.39-2.56v-8.38l-2.91-8.21h27.18l-2.74,8.21v22.05l-10.77,10.77h-43.25Zm72.15-8.21V8.38l-2.74-8.38h26.84l-2.74,8.38V50.95l2.56,2.56h16.58l2.56-2.56V8.38l-2.56-8.38h27.18l-2.74,8.38V121.72l2.74,8.21h-27.18l2.56-8.21v-43.94l-2.56-2.56h-16.58l-2.56,2.56v43.94l2.74,8.21h-26.84l2.74-8.21Zm136.6,8.21l10.77-10.77V10.6l-10.77-10.6h-43.25l-10.94,10.6V119.16l10.94,10.77h43.25Zm-32.65-105.65l2.56-2.39h16.41l2.56,2.39V105.82l-2.56,2.39h-16.41l-2.56-2.39V24.28ZM0,315.58l2.74,8.21v113.35L0,445.51H56.76l10.94-10.77v-44.45l-11.11-10.94,11.11-10.77v-42.4l-10.94-10.6H0Zm45.99,105.48l-2.56,2.56H26.84l-2.56-2.56v-28.21l2.56-2.56h16.58l2.56,2.56v28.21Zm0-54.88l-2.56,2.39H26.84l-2.56-2.39v-26.67l2.56-2.56h16.58l2.56,2.56v26.67Zm96.42,57.61l8.89-2.39-3.93,24.11H82.4l2.74-8.21v-113.35l-2.74-8.38h26.84l-2.56,8.38v97.45l2.56,2.39h33.17Zm68.38-100.7l2.39-7.52h-29.58l2.39,7.52-26.67,113.69-4.27,8.72h27.18l-1.88-5.13,4.79-19.83,2.56-2.56h21.37l2.56,2.56,4.79,19.83-1.88,5.13h27.18l-4.27-8.72-26.67-113.69Zm-5.98,73h-12.65l-2.05-1.88,8.38-41.54,8.38,41.54-2.05,1.88Zm122.24-72.14v113.35l2.74,8.21h-24.45l-31.46-78.98v70.78l2.74,8.21h-26.84l2.74-8.21v-113.35l-2.74-8.38h24.11l31.46,79.15v-70.78l-2.74-8.38h27.18l-2.74,8.38Zm60.86,24.11v-8.55l-2.39-2.56h-16.92l-2.56,2.56v81.55l2.56,2.56h16.92l2.39-2.56v-8.38l-2.91-8.21h27.18l-2.74,8.21v22.05l-10.77,10.77h-43.25l-10.94-10.77v-108.56l10.94-10.6h43.25l10.77,10.6v21.88l2.74,8.21h-27.18l2.91-8.21Zm83.43-24.96l2.39-7.52h-29.58l2.39,7.52-26.67,113.69-4.27,8.72h27.18l-1.88-5.13,4.79-19.83,2.56-2.56h21.37l2.56,2.56,4.79,19.83-1.88,5.13h27.18l-4.27-8.72-26.67-113.69Zm-5.98,73h-12.65l-2.05-1.88,8.38-41.54,8.38,41.54-2.05,1.88ZM0,155.84l2.39,8.21v113.35l-2.39,8.38H56.76l10.94-10.77v-108.56l-10.94-10.6H0Zm45.82,105.48l-2.56,2.56H26.67l-2.56-2.56v-81.55l2.56-2.56h16.58l2.56,2.56v81.55Zm60.69-81.55v26.84l2.56,2.56h10.94l8.38-2.74v27.18l-8.38-2.74h-10.94l-2.56,2.39v28.04l2.56,2.56h33.34l8.89-2.56-3.93,24.45H82.4l2.74-8.38v-113.35l-2.74-8.21h64.96l3.93,23.93-8.89-2.56h-33.34l-2.56,2.56Zm97.62-15.56v113.35l-2.74,8.21h26.84l-2.74-8.21v-38.29l2.56-2.56h30.09l10.94-10.94v-59.32l-10.94-10.6h-56.76l2.74,8.38Zm21.37,15.9l2.56-2.39h16.58l2.56,2.39v32.48l-2.56,2.39h-16.58l-2.56-2.39v-32.48Zm130.27,105.65l-4.27-8.72-26.67-113.69,2.39-7.52h-29.58l2.39,7.52-26.67,113.69-4.27,8.72h27.18l-1.88-5.13,4.79-19.83,2.56-2.56h21.37l2.56,2.56,4.79,19.83-1.88,5.13h27.18Zm-36.93-49.41h-12.65l-2.05-1.88,8.38-41.54,8.38,41.54-2.05,1.88Zm71.8,27.7h33.17l8.89-2.39-3.93,24.11h-64.96l2.74-8.21v-113.35l-2.74-8.38h26.84l-2.56,8.38v97.45l2.56,2.39Zm63.43-108.22l-10.94,10.6v108.56l10.94,10.77h43.25l10.77-10.77v-108.56l-10.77-10.6h-43.25Zm32.14,105.82l-2.56,2.39h-16.41l-2.56-2.39v-81.55l2.56-2.39h16.41l2.56,2.39v81.55Zm133.69-97.45v113.35l2.74,8.21h-26.84l2.74-8.21v-74.71l-18.98,45.65h-13.68l-18.98-45.65v74.71l2.74,8.21h-26.84l2.74-8.21v-113.35l-2.74-8.38h24.1l25.82,58.81,25.81-58.81h24.11l-2.74,8.38Zm97.45,121.55l-4.27-8.72-26.67-113.69,2.39-7.52h-29.58l2.39,7.52-26.67,113.69-4.27,8.72h27.18l-1.88-5.13,4.79-19.83,2.56-2.56h21.37l2.56,2.56,4.79,19.83-1.88,5.13h27.18Zm-36.93-49.41h-12.65l-2.05-1.88,8.38-41.54,8.38,41.54-2.05,1.88Z"/>
    </clipPath>
  </defs>
  <g id="Layer_1-2" data-name="Layer 1">
    <g class="cls-1">
      <image width="5712" height="4284" transform="translate(-74.53 -17.73) scale(.15 .12)" xlink:href="rdpb-clipping1.png"/>
    </g>
  </g>
</svg>