<?xml version="1.0" encoding="UTF-8"?>
<svg id="Layer_2" data-name="Layer 2" xmlns="http://www.w3.org/2000/svg" viewBox="0 0 530.65 531.29">
  <g id="Layer_1-2" data-name="Layer 1">
    <g>
      <path d="M152.01,159.48l17.81,1.48c-3.27,11.86-19.18,6.7-28.23,7.32l4.61,1.08,8.41.55-2.17,5.12,5.32,9.72c.06,2.35-4.32,1.92-5.06,3.04-.58.87-.09,3.18-.37,4.52-.31,1.54-2.38,3.55-1.78,5.27,1.96-1.06,8.82-5.32,9.54-2.21l.76.04c.9-1.86,3-1.78,4.04-2.48,5.12-3.47,7.81-9.09,14.5-12.1,2.63-1.18,6.88-2.64,7.59,1.05,5.59,1.64,9.72-8.14,15.3-8.56l183.57-29.47.58,5.64-88.51,16.07c-.69.64,3.19,4.9-.69,7.17l-29.11,5.9c-.02,1.9.16,3.06-.94,4.7s-4.39,2.85-5.34,3.95c-.68.8-.76,2.16-1.62,3.27-3.02,3.89-8.2,6.52-12.52,8.65-.61,3.68-.29,8.34-1.79,11.78-1.5,3.45-1.41,2.92-2.41,6.82-1.65,6.41-13.48,23.62-18.09,29.13-5.05,6.03-10.16,7.11-17.87,7.64-13.75.95-27.35-1.57-40.98-2.71l-.53-5.43c-.1,2.61.13,5.25-.01,7.86-.97,18.44-2.4,37.53-2.19,55.94.04,3.29,1.54,12.32.3,14.9-1.03,2.14-4.05.79-4.08,1.37,1.36,6.57,3.01,13.09,4.18,19.7.99,5.59,4.29,22.57,2.47,27.1-.97,2.41-7.26,8.18-9.35,10.74-9.47,11.6-17.56,24.14-25.8,36.62-.42-10.63.1-20.54-1.44-31.12-1.42-9.78-4.13-18.82-7.51-28.04l-14.66,49.39c-9.09-3.6-20.27-4.57-29.73-1.78-2.75.81-5.06,2.45-7.72,3.41.53-5.32,1.08-10.71,2.24-15.94.86-3.87,2.72-7.52,3.12-11.53.73-7.25.98-17.43,1.17-24.88.39-14.65-3.25-26.42-1.09-41.8.1-.69.57-1.19,1.05-1.65-2.12-1.38-3.75-3.09-4.71-5.48.55-5.23,1.44-10.46,2.02-15.69,1.33-12.18,2.23-24.2,2.71-36.37.67-17.02-6.2-31.84-1.22-48.44,1.92-6.41,5.23-11.2,11.34-14.18,1.43-.69,9.07-3,9.33-3.43s.09-1.81.6-2.93c.97-2.16,4.24-4.29,5.75-6.19,3.82,8.48,12.32,12.88,19.26,18.45.57-.64-3.93-4.83-4.59-5.44-5.65-5.14-18.29-11.43-8.43-19.52l-2.17,1.08.54-1.62c-3.32,1.13-4.5-2.48-4.82-5.22-3.59-30.31,37.4-38.06,49.44-12.27ZM130.19,174.79c-.72-4.31-6.67-3.02-7.45.41-.7,3.1-.42,7.58,1.49,10.18.53.72,3.81,4.28,3.79,1.37-4.74-.33-5.06-12.14-1.79-12.96l3.96,1.01ZM238.21,185.66l-26,4.39c.71,5.87-4.37,10.05-10.07,9.14-2.78-.44-4.43-2.69-6.74,1.46-1.56,2.79-2.51,4.5-4.65,6.74-3.3,3.46-6.69,4.08-11.39,3.73-2.19-.16-4.39-2.05-6.23,1.3,1.24,4.91,5.17,4.46,9.31,5.93,3.91,1.38,4.89,1.83,9.12,2.82,2.03.48,3.43,2.17,5.15,2.45,3.73.6,7.27-1.39,10.55.57,2.58-7.12,11.08-11.34,15.74-17.11,3.85-4.78,6.65-11.28,10.32-16.3l1.91.83,2.98-5.96ZM200.21,197.59c5.56,2.99,13.92-4.54,5.43-6.51.39,4.09-2.96,4.51-5.43,6.51ZM143.76,202.48c-4.65-.35-7.48,3.49-11.65,4.9-1.91.64-5.79,1.54-7.71,1.57-6.51.1-12.95-4.12-20.01-3.22-.75.1-1.7.41-.81,1.08l10.86,1.64-7.05,4.33c5.52.58,10.47-2.23,15.74-3.25-1.17,2.62-2.77,4.61-3.64,7.48-.28.92-1.42,3.99-.16,4.45.08-2.79,3.82-9.88,6.37-10.73.66-.22,6.31-1.32,6.59-1.14l3.32,7.53c1.3-3.14-.3-7.93,1.39-10.82,1.19-2.03,5.36-1.78,6.76-3.82ZM94.37,243.72c22.12,5.55,46.82,4.05,61.86-14.94,1.33-1.67,3.02-3.71,3.81-5.68-6.45,6.91-12.75,13.82-21.51,17.83-11.12,5.09-23.14,5.07-35.13,3.81-2.43-.26-4.86-1.1-7.28-1.41-.59-.08-1.87-.6-1.75.39ZM138.87,322.43c.56-3.86,1.25-7.78,1.63-11.67,1.35-13.79,2.05-31.84,1.11-45.61-.08-1.2-.43-2.32-.57-3.5-.95-.13-.51,1.23-.54,1.89-.43,11.01.3,22.12.02,33.14-.58,8.02-1.33,16.02-2.04,24.02-.05.6-.64,1.85.38,1.74Z"/>
      <path d="M285.29,312.26c2.31,2.41-.97,6.8-1.75,9.1-2.28,6.71-1.36,8.59-8.59,12.03-1.75.83-7.79,3.33-9.46,3.57-4.22.61-8.7-.56-12.81.63-1.64,1.06-2.75,20.79-4.17,24.18-.72,4.7,2.36,9.14,2.72,13.59.51,6.16-1.82,18.19-4.24,23.98-3.37,8.08-8.13,11.18-9.32,20.53-1.6,12.53-3.74,28.27-4.37,40.68-.32,6.38.88,11.46,1.58,17.59-4.91,1.88-8.9,3.7-11.6-2.1-3.68-7.93-.79-23.43-1.36-32.83-.28-4.56-1.36-9.21-1.99-13.73l-2.35-.66,4.88-17.91c-.95.15-.94,1.09-1.23,1.75-1.25,2.83-3.05,6.8-3.9,9.67-2.45,8.24-2.53,32.27-1.95,41.52.26,4.03,1.23,8.27,2.19,12.19-4.97-1.95-7.82,3.02-11.95-1.88-2.61-3.1-2.16-15.5-2.7-20.09-1.43-12.12-4.96-23.89-5.43-36.1-.95-.13-.51,1.23-.54,1.89-.21,5.08.38,10.05,1.24,15.04.72,4.17,3.98,13.16,2.85,16.75-.24.75-3.05,3.97-3.82,4.86-4.95,5.71-11.3,10.07-16.83,15.18-1.75-2.76-4.02-3.69-6.77-5.15,8.15-7.18,9.91-16.82-.38-22.97-12.08-7.23-25.69,5-33.01,14-2.3-2.24-5.75-3.87-8.96-4.33.16-2.3,1.83-3.94,2.73-6.23,2.12-5.4,2.35-11.78.41-17.26-.78-2.21-3.1-4.58-2.31-6.87,10.85-17.71,23.57-34.14,36.64-50.23,3.05-3.75,7.1-7.2,9.99-11.18,2.64-3.64,4.46-8.06,7.38-11.62,3.58-4.36,8.22-7.48,11.51-12.38,5.33-7.95,6.25-17.53,12.09-24.81,4.18,4.02,9.52,9.14,14.53,12.06,4.43,2.58,6.94,1.68,9.38-2.82,3.51-6.45-.39-16.81.24-23.91-.71-.15-.87,1.01-.94,1.49-1.04,6.8,3.43,17.67-.68,23.2-1.75,2.35-3.4,3.21-6.28,1.95-1.63-.72-7.64-5.46-9.4-6.88-3.71-2.99-11.9-9.36-10.91-14.58.66-3.49,12.69-10.51,16.27-11.43,12.47-3.2,27.9-3.33,38.51,4.93,4.45,3.46,2.19,6.86,5.62,9.03,4.06,2.58,16.48,3.65,19.24,6.53ZM181.75,454.87c6.88-15.12-1.96-39.09-21.71-31.76-1.63,1.66,3.26-.17,3.59-.2,10.98-1.05,18.37,6.45,19.2,17.04.38,4.86-.5,8.62-1.38,13.26-.11.56-.71,1.78.3,1.65Z"/>
      <path d="M465.1,439.13c1.72-3.67.28-9.25,1.38-12.46.73-2.15,8.2-10.9,10.14-13.74,112.23-164.39,10.72-386.3-187.66-404.22C196.02.31,108.74,39.99,54.85,115.46c-64.92,90.91-63.15,217.81,6.19,305.73l.19,1.07-5.95,3.6c-23.73-30.74-40.73-65.88-49.12-103.96-16.52-74.92.55-155.59,46.73-216.53C171.2-50.74,414-29.92,502.39,144.83c48.29,95.46,33.96,214.52-37.29,294.31Z"/>
      <path d="M434.7,214.42l-3.8-7.05,7.59,2.17-1.62-7.59c.71-.74,6.14,4.76,7.05,3.79l1.36-7.04,3.53,5.96,4.33-6.51,2.45,7.04,4.89-4.87c1.17-.23.83.55.83,1.36,0,1.81-.95,3.74-.56,5.68l7.05-2.71-2.71,7.05,7.6-.53c-.97,1.44-1.95,2.95-3.04,4.31-.55.68-1.72.24-1.3,1.66l7.05,1.9-5.96,3.53c1.2,1.8,3.69,2.39,5.29,3.63.45.35.99,0,.69,1.24l-7.6,1.09,4.87,5.69c-.73,1.17-.94.45-1.49.44-2.03-.07-4.21.05-6.09-.71l2.16,7.05-6.51-2.71v7.6l-5.7-4.88c-.31.82-.7,2.21-.75,3.05-.42,6.65,1.62,16.75,2.1,23.82.13,1.89-.08,3.81.01,5.69l3.13-7.45c-.19-6.72,4.39-18.2,12.63-16.73,5.85,1.04,11.13,5.16,14.91,9.52.42.48,3.38,4,2.98,4.35-4.19.14-7.66-2.28-11.83-3.09-10.27-2-14.75-.7-17.75,9.61-3.31,11.4-2.3,23.53-2.44,35.27.78.13.73-.94.92-1.51,1.61-4.96,1.93-10.91,5.67-14.96,1.15-1.24,4.05-2.4,4.17-2.61.74-1.22-.53-4.11,2.53-6.97,3.27-3.04,6.72-2.5,10.4-.64,9.34,4.72,11.75,19.4,11.57,28.86-.96.15-1.19.02-1.87-.56-1.89-1.62-3.25-5.25-5.77-7.26-3.42-2.73-8.02-2.9-11.53-5.3s-4.34-6.6-8.74-.42c-9.41,13.21-6.91,66.69-7.39,84.89-.11,4.43.13,8.89.03,13.32l2.87-21.82c2.19-9.21,3.41-18.51,4.8-27.77,1.88-12.49,7.03-24.37,16.49-32.91.41-.08.33.5.26.8-1.71,6.67-6.15,19.45-9.12,25.62-1.25,2.61-3.24,4.93-4.54,7.4-3.37,6.45-5.62,20.36-6.35,27.85-.06.65-.57,2.9.47,2.91,2.49-11.61,8.16-23.17,16.02-32.02.41-.08.33.5.28.82-3.28,18.24-16.35,36.58-20.46,55.53-.53,2.45-1.59,13.17-2.86,13.96-.54.33-1.05.29-1.64.25-.84-.54-.62-14.78-.57-17.12.21-11.81,1.03-23.97,1.13-35.78.09-10.98,1.37-40.66-7.05-48.35-2.88-2.63-3.42.12-6.17,1.47-4.73,2.33-10.13,3.1-14.15,7.02-1.8,1.76-2.86,5.17-5.76,5.37v-7.87c0-5.07,3.75-17.08,8.18-20.05,5.22-3.5,6.73.43,8.88.27.33-.03.54-1.14,1.18-1.59,4.36-3.06,9.34.16,8.85,5.55-.12,1.35-1.58,4.41-1.49,4.88.16.85,4.08,3.79,4.36,5.41l3.15,7.97c-1.05-12.51-.51-25.38-3.95-37.57-1.88-6.68-3.79-11.28-11.49-11.85-6.99-.52-12.34,2.3-18.75,4.36-.16-.83.08-1.26.51-1.92.97-1.5,8.18-8.41,9.84-9.7,3.96-3.05,9.69-5.63,14.01-1.62,3.39,3.14,1.95,7.72,5.59,10.69l3.14,9.61-2.17-31.74-2.17-8.42c-1.2-1.1-3.95,5.35-5.42,5.43l-.55-7.6-6.51,3.8,1.08-7.05-7.6,2.16,3.8-7.05c-1.21-.17-7.61.55-7.59-.82,1.4-1.15,2.74-2.31,4.07-3.54.36-.34,2.52-.85,1.01-1.61l-6.16-2.44,6.49-3.26c0-.57-5.25-3.37-4.87-5.16h7.6Z"/>
      <path d="M332.11,283.36c2.86,4.65,3.1,9.78,3.67,15.05.77,2.19,9.17,10.7,9.17,11.81,0,2.23-10.58,7.81-12.86,7.11-3.4-1.04-4.32-12.95-9.21-13.9-.42,5.31-.3,10.68-.55,16-.98,20.94-1.94,41.99-2.73,62.95-.46,12.26.32,26.63-1.05,38.57-.15,1.27-.54,3.1-2.18,2.97-.96-.69-.64-20.62-.57-23.63.76-33.15,3.27-66.44,3.71-99.74-2.94-3.38-6.26-7.03-6.41-11.78-8.23,5.73-17.72,5.73-27.24,3.64-4.9-1.08-11.95-3.11-14.55-7.7.01-2.45,7.16-6.85,9.28-8.11,6.09-3.61,13.52-6.93,20.79-6.22,5.07.49,8.57,3.65,13.36,3.73-3.28-3.08-1.08-3.88-.68-6.92.51-3.84-1.09-9.96,5.43-7.32,3.86,1.57,5.18,12.33,7.56,13.1,1.38.45,8.61-4.23,11.16-4.98,7.89-2.32,18.06.17,24.7,4.91,4.14,2.95,4.53,3.94.32,7.08-6.06,4.53-15,7.42-22.55,6.46-3.21-.41-5.7-1.8-8.57-3.1Z"/>
      <path d="M175.25,489.61c2.33.22,5.3-.21,7.02-1.93,1.81-1.82,3.05-7.82,5.75-8.36,7.23-1.45,2.65,5.61,2.98,5.96,2.17-.79,3.82-2.62,6.08-3.41,5.28-1.86,10.63-.33,8.58,6.13,2.81-3.21,12.5-6.98,15.13-2.38,2.94,5.15-8.03,13.95-7.48,19.7,2.01,2.91,9.33-4.18,10.56-5.89,1.41-1.96,2.24-4.94,3.81-7.04,3.19-4.28,8.99-8.59,14.61-8.19,2.38.17,4.1,1.97,4.99,2.1.37.06,5.84-2.63,6.65-.12s-6.63,14.32-7.33,18.09c-.17.9-.59,1.73.31,2.48,2.11,2.41,7.32-3.33,8.68-4.92.99-1.16,3.55-6.95,5.19-4.62.83,1.78-1.18,3.9-2.24,5.4-3.08,4.39-10.73,12.12-16.49,8.44-1.76-1.13-2.43-3.12-2.2-5.14-5.09,6.64-15.51,8.51-16.28-2.17-.84.1-.84,1.24-1.59,1.93-3.08,2.85-8.91,5.71-13.03,3.74-7.93-3.8,6.75-19.52,4.86-21.4-5.22-.51-9.15,4.01-11.84,7.97-3.63,5.37-4.13,13.76-12.57,10.46-.92-1.35,7.4-13.75,8.51-16.15.55-1.2,2.14-3.81.35-4.39-3.12-1.01-8.6,4.5-10.41,6.81s-5,9.36-6.35,10.47c-1.73,1.43-7.62,1.89-7.18-1.26.22-1.52,5.62-8.41,4.75-9.58-1.92,1.09-4.13.16-6.11.67-1.72.45-5.42,4.13-8.39,5.18-8.28,2.91-17.66-.02-15.35-10.19-8.11,5.78-22.7,6.52-17.37-7.6-3.8,2.14-8.25,4.24-12.75,3.8s-7.66-4.36-5.16-8.68c-3.55,1.43-8.13,2.83-11.67.54-5.95-3.84-1.47-10.97,2.44-14.39,5.06-4.44,16.06-8.45,21.68-3.22,1.06.99,1.6,2.78,1.74,2.87,1.12.69,7.46-.57,6.9,3.81-3.63,2.84-8.02,5.87-11.33,9.02-5.31,5.04-5.05,8.62,2.92,5.64,12.84-4.8,19.26-22.66,34.39-28.03,2.35-.84,5.35-2.04,7.49-.13,6.23,5.57-8.23,15.09-12.27,17.61-6.85,4.27-17.1,6.43-18.84,15.38-1.34,6.85,10.16,1.33,12.87-.73,1.89-1.44,3.38-3.63,5.22-5.1,11.43-9.09,27.73-6.25,19.8,10.84ZM147.02,470.61l14.94-9.75,4.04-4.63c-1.37-1.86-3.46.22-4.82,1.14-4.84,3.25-9.95,9.14-14.16,13.24ZM118.1,460.43c-2.5.52-8.04,4.56-9.62,6.66-1.02,1.35-2.97,4.46-1.66,6,3.55,2.42,16.32-5.42,18.53-8.7s-4.64-4.5-7.25-3.96ZM170.9,487.98c1.79-2.98,4.23-11.19-1.86-10.33-4.49.63-1.96,9.67,1.86,10.33ZM162.76,481.47c-1.24-1.47-13.04,13.61-3.53,13.61,2.94,0,6.22-2.26,8.41-4.12-2.76-2.48-5.33-5.54-4.88-9.5ZM231.22,506.36c2.95,1.63,6.56-2.65,8.3-4.86,2.47-3.14,10.48-15.87.84-13.27-5.41,1.46-10.56,12.68-9.14,18.13Z"/>
      <path d="M277.29,51.04c3.71-1.77,6.77-3.92,11.07-2.11,7.22,3.04-3.2,15.39-3.9,20.44-.15,1.07-.45,2.23.77,2.81,8.98-1.67,10.35-11.98,16.48-17.06,11-9.13,23.47-4.44,19,10.59,2.4,1.02,9-4.53,10.03-4.34,2.07.39-.51,3.39-1.38,4.04-3.19,2.42-8.23,2.51-10.13,3.71-.45.28-2.88,4.06-4.24,5.26-6.84,6.02-19.47,8.03-20.34-3.78-3.41,3.27-11.25,9.29-15.76,5.18-5.44-4.95,4.14-15.1,4.36-20.17.18-4.24-4.51-1.61-6.36-.33-3.5,2.41-6.48,7.07-8.01,10.99-.81,2.07-1.54,6.98-2.4,8.32-.55.85-4.52,1.66-5.47,1.19-2.53-1.26.15-4.88-.28-6.8-6.27,7.39-18.64,12.12-23.89,1.08-2.35,4.24-11.36,10.43-15.48,5.72s3.51-19.8,1.03-21.38c-.31-.2-.88-.15-1.27-.12-4.48.39-8.08,11.05-9.04,14.9-.65,2.59-.8,7.2-1.69,9.16s-5.44,3.9-6.27,1.11c-.27-.93.38-2.81-.65-2.87-1.34,4.22-7.3,9.39-11.68,5.97-1.35-1.06-1.3-2.44-2.43-3.26-1.73,6.55-10.38,11.48-15.11,4.52-5.51-8.1,1.7-25.99,11.62-27.27,1.91-.25,4.24.51,5.3.34,1.53-.25,4.48-3.76,7.17-1.49-.39,3.75-4.52,20.64-1.4,22.57,3.89,2.41,8.39-11.67,9.08-14.3,1.36-5.18.05-12.96,7.24-12.37l.24,6.28c1.94-3.35,5.07-7.97,9.26-8.64,13.18-2.13,3.2,16.18,4.82,22.79,1.77,2.6,7.36-3.61,8.26-5.36,1.03-2.01,1.02-4.62,1.79-6.9,2.26-6.67,13.15-17.3,20.09-11.36,5.17,4.43-2.74,13.33-5.17,9.49-1.25-2.08,5.06-6.4,1.1-7.08-11.86-2.04-15.33,33.35,4.35,17.37,5.6-4.54,4.6-6.63,6.94-12.61,3.43-8.77,8.07-19.12,15.05-25.66,8.7-8.13,19.13-5.2,11.85,6.97-3.49,5.83-10.1,9.49-14.56,14.48ZM274.04,49.96c.7.85,12.33-11.77,13.25-13.07,6.58-9.32.89-9.55-4.79-2.62-1.38,1.68-9.26,14.72-8.45,15.7ZM311.33,54.96c-5.12,1.51.07,10.28,4.17,10.17,2.04-.64,2.68-12.19-4.17-10.17ZM186.5,60.35c-3.62.66-6.49,7.83-6.85,11.11s-.6,9.06,2.95,10.55c4.03.37,6.66-10.97,7.14-14.03s1.85-8.56-3.24-7.63ZM313.11,68.42c-4.03-.84-6.56-4.48-7.87-8.15-3.54,3.96-7.27,16.14,2.06,14,1.33-.31,6.75-4.58,5.81-5.85Z"/>
      <path d="M389.65,349.57c2.99,8.5,3.51,16.93,9.24,24.14,1.18,1.48,4.39,3.36,3.73,5.35-.36,1.08-9.28,5.56-10.66,5.69-5.39.49-6.66-12.52-9.33-15.8-.42-.51-3.02-1.76-3.28-1.47-.56,11.12-1.07,22.25-1.64,33.37-.05,1.05-.5,2.09-.56,3.24-.15,2.83.66,11.21-.57,13-3.26,4.71-2.73-6.61-2.68-8.11.46-14.87,2.72-29.91,2.46-44.75-2.81-2.98-5.54-6.6-5.69-10.86-3.09,1.37-5.86,3.23-9.22,4.07-6.49,1.62-17.75.65-23.88-2.18-6.51-3-4.51-5.51-.26-9.48,6.51-6.09,16.74-11.34,25.75-8.41,1.5.49,6.48,4.05,7.54,2.35,1.28-3.07-2.45-4.83-2.01-7.11.53-2.77,3.61-6.42,6.71-6.4,4.51.04,4.64,6.87,6.86,9.97,3.76,5.25,6.59.63,10.77-.99,5.79-2.24,11.68-1.77,17.35.55,3.15,1.29,14.48,8.38,14.15,11.92-.13,1.38-5.07,3.44-6.42,3.93-9.73,3.49-19.27,3.06-28.34-2.02Z"/>
      <path d="M456.95,436.69c-.84,6.27-6.39,13.23-12.48,7.33-.16,9.45-7.39,16.55-15.2,8.14.02,10.04-10.21,23.25-20.08,14.11-.91,5.07-5.07,14.85-11.55,13.46-5.01-1.07-4.26-12.66-4.98-16.75-.22-1.23-.64-3.6-2.11-3.71-4.62.42-5.35,12.51-5.27,15.98.11,5.01,3.54,11.63-4.33,11.96l-2.16-4.65c-.8,6.59-10.05,13.73-13.84,5.43-2.06,4.52-4.56,8.8-10.26,8.09-3.88-.48-3.39-2.51-5.16-4.5-.43-.48-.42-.46-1.12-.34-1.44,7.89-13.47,16.91-16.59,4.92-2.5-9.62,1.48-36.04,8.97-43.2,1.79-1.71,5.48-3.53,7.67-1.66,4.08,3.48-1.12,18.21-3.05,22.57-3.51,7.91-8.68,10.56-7.17,20.23.1.64.27,1.3.52,1.89,3.3,1.91,6.13-3.05,7.4-5.63,3.7-7.5,2.05-18.35,11.09-23.11,4.1-2.16,5.03-.61,7.65-1.1,1.03-.19,3.46-4.03,6.23-2.52,1.11.69-1.9,20.84.14,22.11,4.14,2.58,6.73-9.46,7.42-11.76l-.87-12.21c.22-1.5,3.38-4.52,4.82-3.41.98.75.2,4.04,1.59,4.65.5-4.64,4.87-10.52,10.01-9.74,6.44.98,3.68,18.23,6.27,19.81,3.56,1.34,5.48-5.11,5.84-7.76.54-4.01-.74-7.75-.42-11.82.45-5.68,4.69-15.17,11.68-13.81,4.55.88,5.4,11.28-.56,9.24-.75-1.1,1.64-5.36-1.59-5.44-5.96-.14-5.44,15.97,1.14,19.46,6.01,3.18,10.96-9.36,11.07-13.79.05-1.9-.94-4.02-1.09-5.96-.5-6.42,1.03-15.66,8.22-17.81,1.11-.33,3.58-.23,3.71-.37.26-.27.02-5.64,4.36-4.66,2.11,4.87,2.16,10.47,4.22,15.35,2.72,6.45,6.49,4.7,7.16-1.74.29-2.78-1.42-7.48,2.72-6.78-.28,2.99.39,6.6,0,9.5ZM435.08,428.93c-5.75,1.72-2.42,18.77,1.93,20.66s4.38-7.56,4.13-10.12c-.19-2-1.81-10.01-3.57-10.55-.82-.21-1.67-.24-2.49,0ZM339.16,479.84c2.74-6.76,7.21-14.56,7.61-22,.18-3.29-1-3.94-2.95-1.3-2.3,3.1-4.7,16.17-5.12,20.39-.07.65-.57,2.9.46,2.91ZM360.73,469.64c-5.7,1.28-7.35,16.24-4.43,20.49,4.13,6.02,7.47-9.89,7.77-12.25.44-3.36,2.19-9.48-3.34-8.24Z"/>
      <path d="M422.21,478.2c-10.51,7.45-20.92,14.98-32.2,21.27-57.91,32.31-129.76,40.35-193.71,22.55-15.45-4.3-30.28-10.25-44.93-16.68-.12-1.02,1.1-.42,1.65-.29,1.66.38,3.37,1.37,5.13,1.38,2.32.02,7.03-1.19,9.25-.86.74.11,2.25,2.33,3.31,2.95,4.08,2.39,6.89.98,10.53,1.4,5.16.6,16.04,5.17,22.12,6.66,69.44,17.03,136.93,3.42,198.71-30.03,2.5-1.36,11.76-7.91,12.93-8.23,2.03-.57,5.07.23,7.21-1.2v1.07Z"/>
      <path d="M316.91,479.83c16.47,8.71,4.09,32.37-12.96,28.43-7.1-1.64-8.91-11.85-2.94-13.12,4.65-.99,1.88,2.23,1.8,4.02-.12,2.76,2.79,4.64,5.42,4.34,7.76-.88,11.2-13.03,6.25-18.8-4.44-5.17-7.84,2.47-11.13-2.39.59-5.92,6.58-3.69,9.73-4.94,5.7-2.27,10.09-15.2,3.48-18.64-4.37-2.27-6.26,1.35-8.24,4.65-7.01,11.67-9.76,42.75-21.61,47.87-6.72,2.9-16.24-.21-12.14-8.62,2.66.62,2.53,3.85,5.73,4.32,6.05.88,8.53-6.34,10.25-10.86,4.87-12.82,5.86-29.08,17.12-38.25-8.09-1.16-21.38,6.38-23.62,14.38-1.53,5.48.95,9.8,6.52,5.97,2.18-.31-1.01,3.69-1.7,4.27-4.34,3.62-10.51,1.45-11.46-4.12-3.12-18.32,30.81-30.71,44.55-22.85,8.3,4.75,6.1,15.7-.46,21.06-.6.49-4.89,2.85-4.6,3.26Z"/>
      <path d="M152.99,75.47l.35,1.12c4.62,2.52,9.34,11.29,14.56,11.91,2.56.3,4.85-.52,7.34-.55-3.96,8.39-11.66,9.07-17.92,2.45-4.07-4.3-6.47-12.51-13.56-11.14.1,10.36-.16,29.45-14,30.82-5.23.52-9.61-3.65-5.81-8.56,8.45,8.81,12.18-2.48,12.75-10.06.86-11.44-.51-22.96,2.57-34.34.36-1.32,2.32-4.99,2.31-5.28-.02-.8-.78-.63-1.43-.36-6.85,2.88-18.73,16.42-14.77,24.18,2.53,4.96,6.68-1.08,7.52-.2-.96,9.77-13.99,10.6-14.11-.27-.13-12.09,12.55-24.47,22.78-29.33,25.88-12.28,32.46,19.95,11.42,29.61ZM143.76,75.47c9.81-2.17,16.86-10.85,13.75-21.08-1.38-4.52-8.67-9.26-11.31-3.89-.92,1.87-2.44,8.09-2.44,10.04v14.93Z"/>
      <path d="M390.71,52.15l-.5,2.44c-7.54,9.7-17.2,18.99-24.13,29.06-1.35,1.97-4.78,6.8-.04,6.76,5.2-.04,12.23-9.25,17.49-11.57,5.49-2.43,19.11-3.41,18.05,5.53-.99,8.32-14.82,8.14-20.81,6.87-4.73,9.46,8.66,8.93,14.73,6.62,2.4-.91,6.31-4.61,7.18-1.51-7.84,8.83-31.33,10.69-29.85-5.69-2.25.69-4.12,2.53-6.48,3.01-6.25,1.28-11.59-.74-9.26-7.9-.33-.27-3.93,2.09-4.9,2.42-7.26,2.48-13.08-2-10.87-9.78,2.95-10.35,20.17-21.16,28.52-10.57l13.7-15.74c2.66-1.97,4.41-.38,7.18.04ZM348.48,84.61c4.83,2.91,18.87-11.25,18.08-14.03-3.49-6.17-11.4-.59-14.59,3.3-2.18,2.66-5.08,7.33-3.49,10.73ZM397.13,82.09c-.21-.37-2.25-1.19-2.86-1.24-4.53-.39-9.67,4.28-12.21,7.64,2.96,1.83,17.78-1.65,15.08-6.4Z"/>
      <path d="M64.68,443.32c4.4,5.36,17.34-2.63,22.1-4.99,9.09-4.5,17.35-10.34,28.21-10.06-6.01-6.77-21.23-10.37-28.74-4.58-2.2,1.7-3.12,4.64-.54,6.45,1.04.73,3.08.27,2.68,1.92-9.76,2.61-14.43-7.26-5.94-13.26,14.8-10.45,54.37,10.05,42,27.34-7.27,10.16-27.15,5.82-35.34-1.51-7.03,3.88-15.11,8.04-23.27,5.37-4.49-1.46-8.41-5.33-7.04-10.36,1.51-5.53,8.53-5.01,7.88-2.44-.14.54-4.83,2.66-2.01,6.1ZM92.2,442.4c6.7,5.12,19.93,7.79,25.75-.04,1.96-2.64,3.34-9.07-.63-10.19-5.53-1.55-19.67,8.18-25.11,10.23Z"/>
      <path d="M50.4,282.27l1.11-7.85c.94-2.12-1.23-7.43-.98-8.64.12-.6,1.37-1.43,1.79-2.5,1.89-4.85,1.52-12.71,5.68-16.84.55,4.97-1.2,9.66-2.15,14.4-.34,1.69,1.17.02,1.07-.55.8-.87.49.51.41.94-.7,3.45-2.81,5.44-3.53,7.87-.45,1.52.26,3.41-1.21,4.76.42,2.31,1.89-2.93,2.7-2.45-.57,3.47-.97,6.9-1.9,10.31-.86,3.17-2.39,6.04-3.17,9.32-2.97,12.55-2.16,29.1-1.96,41.96.08,4.98-.11,9.97-.02,14.95l1.71-14.29c3.01-14.56,3.68-31.35,12.7-43.75.24-.34,1.36-1.9,1.87-1.39-2.52,9.02-3.92,21.41-8.39,29.61-.8,1.46-2.2,2.35-2.75,3.76-1.12,2.89-2.33,12.07-2.82,15.64-2.34,17.1-.37,34.03-1.79,51.14-1.07,1.35-2.2-9.52-2.43-10.32-2.51-9.11-6.51-14.44-7.33-25.24-.06-.73-.46-3.36.53-3.52,2.47,7.3,5.31,14.57,6.53,22.25.95.13.51-1.23.54-1.89.15-3.85.12-8.1.02-11.97-.15-6.03.19-16.24-.6-21.66-.26-1.79-1.64-4.52-2.1-6.59-2.13-9.69-5.25-23.32-5.49-33.06-.02-.61-.16-.96.55-.82l3.53,9.77,4.07,18.99c.23-5.3-.3-10.7.01-16,.36-6.17,2.56-13.21,2.74-18.99s-2.15-10.6-.29-16.56c.18-.57.61-2.2,1.34-2.18v11.4Z"/>
      <path d="M242.38,106.03c1.38,1.17,3.42,5.04,3.99,6.87,1.94.04,3.09-1.65,5.15-1.63,1.86.02,3.21,1.78,5.15,1.65.28,1.23-.19.88-.68,1.24-2.09,1.54-5.42,1.76-6.88,4.53,2.86,3.35,4.45,6.97,1.85,11.05-4.39-2.13-11.35-7.62-16.22-7.01-3.99.5-5.86,4.06-9-1.96l8.53-2.85c3.56-1.43-.62-6.37-2.29-8.27-1.93-2.2-6.73-5.02-7.91-6.74-.45-.66-.64-1.12-.5-1.93,5.21.92,14.69,1.54,18.83,5.05Z"/>
      <path d="M283.81,364.23l3.19,5.22,6.41,18.56,2.88,15.84c-.11-13.58-.58-26.31,2.44-39.63.49-2.16.9-5.55,2.44-7.05l-4.07,63.49-13.29-56.44Z"/>
      <path d="M295.74,108.58c.16,1.14.06.88-.68,1.21-1.76.78-3.18.62-5.01,2.05-2.68,2.09-2.71,5.26-6.63,6.94-1.95.84-4.27.81-6.13,1.47-4.76,1.69-6.81,5.8-10.86-.55,4.28-1.65,14.05-2,8.16-8.16-3.29-3.45-2.75-2.32-5.35-6.6-.45-.75-3.78-5.22-3.36-5.59,7.61.22,15.07,4.07,18.72,10.84,3.85-3.68,6.44-3.75,11.13-1.61Z"/>
      <path d="M452.07,413.62c-1.05-12.63-2.33-25.18-5.06-37.55-2.39-10.83-6.17-21.24-9.05-31.92,10.5,11.73,13.62,27.79,14.67,43.13.44,6.45,1.22,18.39.54,24.47-.09.81-.11,1.67-1.1,1.88Z"/>
      <path d="M330.48,107.5c.16,1.42-.02.86-.8,1.09-6.91,2.06-2.93,2.17-6.25,6.09-3.73,4.4-8.58,2.96-13.17,4.36-1.03.31-4.1,2.88-4.75.66-.95-3.25,10.16-4.42,7.62-8.7-.46-.77-8.75-8.96-7.62-10.01,5.99,2.06,11.9,2.81,16.08,8.1l4.26-3.06,4.62,1.47Z"/>
      <path d="M477.58,368.03c-2.48,7.08-4.96,14.14-8.05,20.99-2.88,6.4-7.31,16.69-10.69,22.44-.41.7.1,1.37-1.35,1.07,1.06-8.55,3.95-17.5,7.5-25.33,2.21-4.87,7.15-14.37,10.73-18.04.56-.58.78-1.38,1.85-1.13Z"/>
      <path d="M52.03,394.08l-1.62-7.33c-.01-19.77,3.28-40.8,15.73-56.71-1.36,6.32-3.1,12.7-5.41,18.74-1.77,4.62-5.23,9.83-6.37,14.25-2.54,9.8-2.29,21-2.33,31.06Z"/>
      <path d="M450.43,411.99l-7.49-18.83c-6.86-8.38-12.25-17.27-16.39-27.3,1.02-.24,1.29.57,1.9,1.08,13.41,11.23,18.58,28.51,21.98,45.05Z"/>
      <path d="M323.42,423.39c-.76.81-.99-.06-1.08-.81-.97-7.64.78-18.54,2.76-26.02,2.09-7.89,5.73-16.17,10.81-22.57-5.47,16.14-10.33,32.4-12.48,49.39Z"/>
      <path d="M299.01,420.14c-.21-11.63,1.89-23.4,6.25-34.18l4.05-7.62c-2.9,13.34-5.47,26.79-9.2,39.92-.21.74-.07,1.68-1.11,1.87Z"/>
      <path d="M53.66,397.88c-.22-5.36,1.79-10.44,3.25-15.48l7.6-16c-1.45,8.93-4.03,22.69-9.12,30.23-.47.7-.62,1.48-1.73,1.25Z"/>
      <path d="M325.6,422.31c.4-11.21,6.29-22.51,14.1-30.4l-14.1,30.4Z"/>
      <path d="M418.41,379.97c-.28,7.57,1.75,15.54,1.11,23.09-.16,1.84-.6,5.11-2.19,6.22-.6-9.25-2.26-18.83-.02-27.99.23-.92-.54-1.58,1.1-1.32Z"/>
      <path d="M294.65,419.05l-13.02-29.31c7.58,7.48,11.82,18.8,13.02,29.31Z"/>
      <path d="M415.69,409.82c-1.5,1.14-6.14-17.09-5.96-18.45,3.7,1.3,8.07,16.86,5.96,18.45Z"/>
      <path d="M351.11,408.2l2.72,1.89,2.16,4.07c.47-3,1.36-6.68,3.8-8.68l-3.52,13.01c-2.38.17-4.59-8.29-5.16-10.3Z"/>
      <path d="M420.05,407.65c.15-5.01,1.71-11.18,5.42-14.66-.91,4.79-1.75,11.3-5.42,14.66Z"/>
      <path d="M383.67,410.37c-1.4,2.64-2.55,7.1-5.97,7.59l2.72-4.6,3.25-2.99Z"/>
      <path d="M149.19,503.72c-2.29-.94-4.94-2.28-7.07-3.53-.7-.41-1.37.1-1.07-1.35,3.18-.45,5.62,3.14,8.14,4.88Z"/>
    </g>
  </g>
</svg>